<svg aria-hidden="true" style="position: absolute; width: 0; height: 0; overflow: hidden;" version="1.1" xmlns="http://www.w3.org/2000/svg" xmlns:xlink="http://www.w3.org/1999/xlink">
<defs>
<symbol id="icon-basket" viewBox="0 0 32 32">
<path d="M31.739 8.875c-0.182-0.256-0.478-0.422-0.812-0.422h-3.117l-6.411-5.463c-0.78-0.78-2.047-0.781-2.828 0l-6.301 5.463h-2.566l-1.607-5.54c-0.63-2.182-2.127-2.417-2.741-2.417h-4.284c-0.549 0-0.993 0.445-0.993 0.993s0.444 0.993 0.993 0.993h4.283c0.136 0 0.549 0 0.831 0.974l5.526 20.311c0.12 0.428 0.511 0.724 0.956 0.724h13.499c0.419 0 0.793-0.262 0.934-0.657l4.758-14.053c0.11-0.304 0.064-0.643-0.122-0.907zM19.986 4.404l4.751 4.050h-9.504zM25.47 22.506h-12.046l-3.161-12.066h19.253zM23.5 26.504c-1.381 0-2.5 1.119-2.5 2.5s1.119 2.5 2.5 2.5 2.5-1.119 2.5-2.5-1.119-2.5-2.5-2.5zM14.5 26.504c-1.381 0-2.5 1.119-2.5 2.5s1.119 2.5 2.5 2.5 2.5-1.119 2.5-2.5-1.119-2.5-2.5-2.5z"></path>
</symbol>
<symbol id="icon-book" viewBox="0 0 32 32">
<path d="M31.363 5.609h-2.106v-0.216c0-0.175-0.072-0.343-0.2-0.464s-0.3-0.183-0.474-0.173l-12.582 0.729-12.582-0.729c-0.175-0.010-0.347 0.052-0.474 0.173s-0.2 0.288-0.2 0.464v0.216h-2.106c-0.352 0-0.637 0.285-0.637 0.637v20.361c0 0.352 0.285 0.637 0.637 0.637h30.725c0.352 0 0.637-0.285 0.637-0.637v-20.361c0-0.352-0.285-0.637-0.637-0.637zM16.637 6.726l11.344-0.658v17.499l-11.344 0.658v-17.499zM4.018 6.068l11.344 0.658v17.499l-11.344-0.658v-17.499zM30.725 25.97h-29.45v-19.087h1.468v17.285c0 0.338 0.263 0.617 0.601 0.636l12.619 0.732c0.012 0.001 0.024 0.001 0.037 0.001 0 0 0 0 0 0h0c0 0 0 0 0 0 0.012 0 0.024-0 0.037-0.001l12.619-0.732c0.337-0.020 0.601-0.299 0.601-0.636v-17.285h1.468v19.087z"></path>
<path d="M13.659 8.292l-4.45-0.258c-0.352-0.021-0.653 0.248-0.673 0.599s0.248 0.653 0.599 0.673l4.45 0.258c0.013 0.001 0.025 0.001 0.037 0.001 0.335 0 0.616-0.262 0.636-0.601 0.020-0.351-0.248-0.653-0.599-0.673z"></path>
<path d="M5.904 9.119l1.097 0.064c0.013 0.001 0.025 0.001 0.037 0.001 0.335 0 0.616-0.262 0.636-0.601 0.020-0.351-0.248-0.653-0.599-0.673l-1.097-0.064c-0.353-0.020-0.653 0.248-0.673 0.599s0.248 0.653 0.599 0.673z"></path>
<path d="M13.659 11.218l-7.681-0.445c-0.353-0.020-0.653 0.248-0.673 0.599s0.248 0.653 0.599 0.673l7.681 0.445c0.013 0.001 0.025 0.001 0.037 0.001 0.335 0 0.616-0.262 0.636-0.601 0.020-0.351-0.248-0.653-0.599-0.673z"></path>
<path d="M13.659 14.205l-7.681-0.445c-0.353-0.020-0.653 0.248-0.673 0.599s0.248 0.653 0.599 0.673l7.681 0.445c0.013 0.001 0.025 0.001 0.037 0.001 0.335 0 0.616-0.262 0.636-0.601 0.020-0.351-0.248-0.653-0.599-0.673z"></path>
<path d="M13.659 17.132l-7.681-0.445c-0.353-0.020-0.653 0.248-0.673 0.599s0.248 0.653 0.599 0.673l7.681 0.445c0.013 0.001 0.025 0.001 0.037 0.001 0.335 0 0.616-0.262 0.636-0.601 0.020-0.352-0.248-0.653-0.599-0.673z"></path>
<path d="M26.144 16.686l-4.755 0.276c-0.352 0.020-0.62 0.322-0.599 0.673 0.020 0.339 0.301 0.601 0.636 0.601 0.012 0 0.025-0 0.037-0.001l4.755-0.276c0.352-0.020 0.62-0.322 0.599-0.673s-0.319-0.62-0.673-0.599z"></path>
<path d="M19.499 17.071l-1.036 0.060c-0.351 0.020-0.62 0.322-0.599 0.673 0.020 0.339 0.301 0.601 0.636 0.601 0.012 0 0.025-0 0.037-0.001l1.036-0.060c0.351-0.020 0.62-0.322 0.599-0.673s-0.321-0.62-0.673-0.599z"></path>
<path d="M26.144 13.76l-7.681 0.445c-0.352 0.020-0.62 0.322-0.599 0.673 0.020 0.339 0.301 0.601 0.636 0.601 0.012 0 0.025-0 0.037-0.001l7.681-0.445c0.352-0.020 0.62-0.322 0.599-0.673s-0.319-0.62-0.673-0.599z"></path>
<path d="M26.144 10.773l-7.681 0.445c-0.352 0.020-0.62 0.322-0.599 0.673 0.020 0.339 0.301 0.601 0.636 0.601 0.012 0 0.025-0 0.037-0.001l7.681-0.445c0.352-0.020 0.62-0.322 0.599-0.673s-0.319-0.62-0.673-0.599z"></path>
<path d="M26.144 7.847l-7.681 0.445c-0.352 0.020-0.62 0.322-0.599 0.673 0.020 0.339 0.301 0.601 0.636 0.601 0.012 0 0.025-0 0.037-0.001l7.681-0.445c0.352-0.020 0.62-0.322 0.599-0.673s-0.319-0.62-0.673-0.599z"></path>
</symbol>
<symbol id="icon-clock" viewBox="0 0 32 32">
<path d="M16.012 7.081c-5.917 0-10.731 4.814-10.731 10.731s4.814 10.731 10.731 10.731 10.731-4.814 10.731-10.731-4.814-10.731-10.731-10.731zM16.012 27.425c-5.3 0-9.613-4.312-9.613-9.613s4.312-9.613 9.613-9.613 9.613 4.312 9.613 9.613-4.312 9.613-9.613 9.613z"></path>
<path d="M29.616 10.343l0.396-0.396c1.101-1.101 1.707-2.564 1.707-4.12 0-1.369-0.469-2.665-1.33-3.706l0.542-0.542c0.218-0.219 0.218-0.573 0-0.791s-0.573-0.218-0.791 0l-0.542 0.542c-1.041-0.861-2.337-1.33-3.706-1.33-1.556 0-3.020 0.606-4.12 1.707l-0.395 0.396 3.725 3.725-0.784 0.783c-2.182-1.621-4.851-2.621-7.744-2.735v-0.578h1.497v-1.232c0-1.134-0.922-2.056-2.056-2.056s-2.056 0.922-2.056 2.056v1.232h1.497v0.578c-2.899 0.115-5.574 1.118-7.758 2.746l-0.794-0.793 3.725-3.725-0.396-0.395c-1.101-1.101-2.564-1.707-4.12-1.707-1.368 0-2.664 0.469-3.706 1.33l-0.542-0.542c-0.219-0.218-0.573-0.218-0.791 0s-0.218 0.573 0 0.791l0.542 0.542c-0.861 1.041-1.33 2.338-1.33 3.706 0 1.556 0.606 3.020 1.707 4.12l0.396 0.396 3.725-3.725 0.711 0.71c-2.915 2.559-4.758 6.31-4.758 10.484 0 4.551 2.191 8.6 5.574 11.148l-1.516 2.451 0.952 0.588 1.485-2.402c2.158 1.37 4.715 2.164 7.455 2.164s5.297-0.794 7.455-2.164l1.485 2.402 0.952-0.588-1.516-2.451c3.382-2.548 5.574-6.597 5.574-11.148 0-4.18-1.849-7.937-4.771-10.495l0.699-0.699 3.725 3.725zM15.075 2.065c0-0.517 0.421-0.938 0.938-0.938s0.938 0.421 0.938 0.938v0.114h-1.875v-0.114zM1.401 5.827c0-1.258 0.49-2.44 1.379-3.329s2.072-1.379 3.329-1.379c1.069 0 2.084 0.354 2.911 1.007l-6.612 6.612c-0.653-0.827-1.007-1.841-1.007-2.911zM28.843 17.813c0 7.075-5.756 12.831-12.831 12.831s-12.831-5.756-12.831-12.831 5.756-12.831 12.831-12.831c7.075 0 12.831 5.756 12.831 12.831zM25.891 1.119c1.258 0 2.44 0.49 3.329 1.379 1.702 1.702 1.826 4.393 0.372 6.24l-6.612-6.612c0.827-0.653 1.841-1.007 2.911-1.007z"></path>
<path d="M20.381 12.653l-3.507 3.507c-0.096-0.050-0.197-0.093-0.302-0.126v-4.958h-1.119v4.958c-0.756 0.238-1.305 0.945-1.305 1.778 0 1.028 0.836 1.864 1.864 1.864s1.864-0.836 1.864-1.864c0-0.311-0.077-0.603-0.212-0.861l3.507-3.507-0.791-0.791zM16.012 18.558c-0.411 0-0.745-0.334-0.745-0.745s0.334-0.745 0.745-0.745 0.746 0.334 0.746 0.745-0.334 0.745-0.746 0.745z"></path>
</symbol>
<symbol id="icon-facebook" viewBox="0 0 32 32">
<path d="M8.434 17.043h3.508v14.441c0 0.285 0.231 0.516 0.516 0.516h5.947c0.285 0 0.516-0.231 0.516-0.516v-14.373h4.032c0.262 0 0.483-0.197 0.513-0.457l0.612-5.316c0.017-0.146-0.030-0.293-0.127-0.402s-0.238-0.173-0.385-0.173h-4.645v-3.333c0-1.005 0.541-1.514 1.608-1.514 0.152 0 3.037 0 3.037 0 0.285 0 0.516-0.231 0.516-0.516v-4.88c0-0.285-0.231-0.516-0.516-0.516h-4.185c-0.030-0.001-0.095-0.004-0.192-0.004-0.726 0-3.25 0.143-5.244 1.977-2.209 2.033-1.902 4.467-1.829 4.889v3.897h-3.682c-0.285 0-0.516 0.231-0.516 0.516v5.248c0 0.285 0.231 0.516 0.516 0.516z"></path>
</symbol>
<symbol id="icon-house" viewBox="0 0 32 32">
<path d="M31.655 13.63l-9.431-9.633c-0.227-0.232-0.539-0.363-0.864-0.363h-10.72c-0.325 0-0.636 0.131-0.864 0.363l-9.431 9.633c-0.34 0.348-0.439 0.866-0.251 1.314s0.628 0.74 1.115 0.74h1.201v11.473c0 0.668 0.541 1.209 1.209 1.209h24.762c0.668 0 1.209-0.541 1.209-1.209v-11.473h1.201c0.487 0 0.926-0.292 1.115-0.74s0.090-0.967-0.251-1.315zM24.336 17.813v8.113h-4.702v-8.113h4.702zM8.094 21.368v-3.802h5.817v3.802h-5.817z"></path>
</symbol>
<symbol id="icon-instagram" viewBox="0 0 32 32">
<path d="M4.109 0.001h23.784c2.26 0 4.107 1.848 4.107 4.108v23.784c0 2.259-1.847 4.106-4.107 4.106h-23.784c-2.26 0-4.109-1.847-4.109-4.106v-23.784c0-2.26 1.849-4.108 4.109-4.108zM23.312 3.555c-0.793 0-1.441 0.65-1.441 1.443v3.447c0 0.793 0.647 1.441 1.441 1.441h3.616c0.792 0 1.441-0.648 1.441-1.441v-3.447c0-0.793-0.649-1.443-1.441-1.443h-3.616zM28.382 13.533h-2.816c0.267 0.872 0.412 1.792 0.412 2.748 0 5.321-4.455 9.636-9.948 9.636-5.492 0-9.947-4.316-9.947-9.636 0-0.956 0.146-1.876 0.412-2.748h-2.938v13.518c0 0.7 0.572 1.27 1.271 1.27h22.283c0.7 0 1.27-0.57 1.27-1.27v-13.518zM16.030 9.704c-3.548 0-6.426 2.787-6.426 6.228 0 3.438 2.878 6.227 6.426 6.227 3.55 0 6.428-2.789 6.428-6.227 0-3.441-2.878-6.228-6.428-6.228z"></path>
</symbol>
<symbol id="icon-chart" viewBox="0 0 32 32">
<path d="M26.019 0h-20.036c-3.304 0-5.983 2.678-5.983 5.981v20.037c0 3.303 2.679 5.981 5.983 5.981h20.036c3.304 0 5.981-2.678 5.981-5.981v-20.037c0-3.303-2.677-5.981-5.981-5.981zM29.333 26.019c0 1.831-1.484 3.315-3.315 3.315h-20.036c-1.831 0-3.316-1.484-3.316-3.315v-20.037c0-1.83 1.484-3.315 3.316-3.315h20.036c1.831 0 3.315 1.484 3.315 3.315v20.037z"></path>
<path d="M25.327 11.864c-0-0.004-0.001-0.007-0.002-0.010-0.004-0.040-0.010-0.080-0.018-0.119-0.004-0.018-0.009-0.036-0.014-0.054-0.006-0.024-0.011-0.049-0.019-0.072-0.006-0.021-0.015-0.041-0.022-0.062s-0.014-0.041-0.022-0.061c-0.010-0.023-0.021-0.045-0.032-0.068-0.008-0.017-0.015-0.034-0.024-0.050-0.019-0.036-0.040-0.070-0.063-0.104-0.002-0.003-0.003-0.006-0.005-0.009-0.025-0.037-0.052-0.072-0.080-0.106-0.001-0.001-0.001-0.002-0.002-0.002-0.008-0.010-0.017-0.019-0.026-0.028-0.020-0.022-0.039-0.045-0.061-0.066-0.016-0.016-0.033-0.030-0.049-0.045s-0.031-0.028-0.047-0.042c-0.019-0.016-0.039-0.030-0.059-0.044-0.015-0.011-0.030-0.022-0.045-0.033-0.020-0.013-0.041-0.025-0.062-0.037-0.017-0.010-0.034-0.020-0.051-0.030-0.019-0.010-0.039-0.019-0.059-0.028s-0.039-0.019-0.060-0.027c-0.018-0.008-0.037-0.014-0.055-0.020-0.023-0.008-0.045-0.016-0.068-0.023-0.018-0.005-0.036-0.009-0.054-0.014-0.024-0.006-0.047-0.012-0.072-0.017-0.021-0.004-0.041-0.006-0.062-0.009-0.022-0.003-0.044-0.007-0.066-0.009-0.030-0.003-0.060-0.004-0.090-0.005-0.013-0-0.025-0.002-0.038-0.002h-0.007c-0 0-0.001 0-0.001 0h-5.326c-0.736 0-1.333 0.597-1.333 1.333s0.597 1.333 1.333 1.333h1.651l-4.235 3.53-3.139-3.139c-0.521-0.521-1.365-0.521-1.886 0l-4 4c-0.521 0.521-0.521 1.365 0 1.886s1.365 0.521 1.886 0l3.057-3.057 3.057 3.057c0.002 0.002 0.003 0.003 0.005 0.005 0.021 0.020 0.043 0.039 0.064 0.058 0.012 0.010 0.024 0.022 0.036 0.032 0.022 0.018 0.046 0.034 0.069 0.051 0.013 0.009 0.026 0.019 0.039 0.028 0.021 0.014 0.043 0.026 0.065 0.038 0.016 0.009 0.033 0.020 0.049 0.029 0.018 0.010 0.038 0.017 0.056 0.026 0.021 0.010 0.041 0.020 0.062 0.028 0.016 0.006 0.032 0.011 0.048 0.017 0.025 0.009 0.049 0.018 0.074 0.025 0.015 0.004 0.030 0.007 0.045 0.011 0.027 0.007 0.053 0.014 0.080 0.019 0.017 0.003 0.034 0.005 0.050 0.007 0.025 0.004 0.050 0.008 0.076 0.011 0.021 0.002 0.042 0.002 0.063 0.003s0.042 0.003 0.064 0.003c0.025-0 0.051-0.002 0.076-0.004 0.017-0.001 0.034-0.001 0.051-0.003 0.027-0.003 0.054-0.007 0.080-0.012 0.015-0.002 0.031-0.004 0.046-0.007 0.025-0.005 0.051-0.012 0.076-0.018 0.017-0.004 0.033-0.008 0.050-0.012 0.022-0.006 0.043-0.015 0.065-0.023 0.019-0.007 0.039-0.013 0.058-0.021 0.018-0.007 0.035-0.016 0.052-0.024 0.023-0.010 0.046-0.020 0.068-0.032 0.014-0.008 0.028-0.017 0.042-0.025 0.024-0.014 0.049-0.028 0.073-0.044 0.013-0.009 0.026-0.019 0.039-0.029 0.023-0.017 0.047-0.033 0.069-0.052 0.002-0.002 0.004-0.003 0.005-0.004l5.813-4.844v2.487c0 0.736 0.597 1.333 1.333 1.333s1.333-0.597 1.333-1.333v-5.333c0-0.001-0-0.002-0-0.003-0-0.044-0.002-0.088-0.007-0.133z"></path>
</symbol>
<symbol id="icon-search" viewBox="0 0 32 32">
<path d="M28.203 22.16c5.063-5.063 5.062-13.3 0-18.363s-13.3-5.063-18.363 0c-4.295 4.295-4.945 10.683-1.953 15.671 0 0 0.215 0.361-0.075 0.651-1.656 1.656-6.625 6.625-6.625 6.625-1.319 1.318-1.632 3.162-0.463 4.332l0.201 0.201c1.169 1.17 3.013 0.856 4.332-0.463 0 0 4.958-4.958 6.611-6.611 0.304-0.304 0.665-0.089 0.665-0.089 4.988 2.992 11.376 2.342 15.671-1.953zM12.237 19.763c-3.741-3.741-3.741-9.827 0-13.568s9.827-3.741 13.568 0c3.741 3.741 3.741 9.827 0 13.568s-9.827 3.741-13.568 0z"></path>
<path d="M13.066 12.208c-0.174 0-0.351-0.034-0.522-0.106-0.681-0.288-1-1.075-0.712-1.756 1.813-4.284 6.773-6.295 11.057-4.482 0.681 0.288 1 1.075 0.712 1.756s-1.075 1-1.756 0.712c-2.923-1.237-6.307 0.135-7.544 3.058-0.216 0.511-0.713 0.818-1.235 0.818z"></path>
</symbol>
<symbol id="icon-monitor" viewBox="0 0 32 32">
<path d="M30.615 0.003h-29.295c-0.693 0-1.32 0.627-1.32 1.32v22.819c0 0.693 0.555 1.32 1.32 1.32h13.357v3.895h-4.522c-0.693 0-1.32 0.555-1.32 1.32 0 0.693 0.555 1.32 1.32 1.32h11.69c0.693 0 1.32-0.627 1.32-1.32s-0.555-1.32-1.32-1.32h-4.522v-3.895h13.357c0.693 0 1.32-0.555 1.32-1.32v-22.819c0.007-0.693-0.621-1.32-1.385-1.32zM29.295 22.822h-26.648v-20.172h26.648v20.172z"></path>
<path d="M10.089 17.189c0.745 0.928 1.601 0.49 1.81 0.346l13.638-8.979c0.627-0.418 0.765-1.255 0.346-1.875-0.418-0.627-1.255-0.765-1.875-0.346l-12.455 8.351-3.202-5.012c-0.346-0.627-1.183-0.836-1.81-0.418-0.627 0.346-0.836 1.183-0.418 1.81l3.966 6.123z"></path>
</symbol>
<symbol id="icon-pinterest" viewBox="0 0 32 32">
<path d="M13.787 21.163c-0.842 4.406-1.867 8.63-4.909 10.837-0.938-6.659 1.378-11.659 2.454-16.968-1.835-3.088 0.221-9.299 4.088-7.768 4.76 1.882-4.122 11.475 1.84 12.675 6.226 1.25 8.766-10.8 4.906-14.718-5.576-5.661-16.234-0.133-14.922 7.971 0.318 1.981 2.365 2.581 0.818 5.315-3.57-0.79-4.635-3.606-4.498-7.36 0.221-6.144 5.518-10.443 10.834-11.040 6.722-0.754 13.030 2.469 13.902 8.79 0.981 7.138-3.034 14.869-10.222 14.312-1.949-0.152-2.765-1.118-4.291-2.046z"></path>
</symbol>
<symbol id="icon-square" viewBox="0 0 32 32">
<path d="M0 0v32h32v-32h-32zM2.357 29.643v-27.287h27.287v27.287h-27.287z"></path>
<path d="M17.065 4.155l-2.131-0.006v10.235h-10.232v2.132h10.232v10.232h2.131v-10.232h10.233v-2.132h-10.233z"></path>
</symbol>
<symbol id="icon-twitter" viewBox="0 0 32 32">
<path d="M31.275 5.924c-0.503 0.223-1.020 0.411-1.548 0.564 0.625-0.707 1.102-1.539 1.393-2.45 0.065-0.204-0.002-0.427-0.17-0.561s-0.4-0.15-0.585-0.040c-1.122 0.665-2.332 1.143-3.6 1.423-1.278-1.249-3.014-1.96-4.808-1.96-3.788 0-6.87 3.082-6.87 6.869 0 0.298 0.019 0.595 0.056 0.888-4.7-0.413-9.070-2.723-12.071-6.404-0.107-0.131-0.272-0.202-0.44-0.188s-0.32 0.108-0.406 0.255c-0.609 1.044-0.93 2.239-0.93 3.454 0 1.655 0.591 3.226 1.635 4.453-0.317-0.11-0.625-0.247-0.919-0.411-0.158-0.088-0.35-0.086-0.507 0.003s-0.255 0.255-0.259 0.436c-0.001 0.030-0.001 0.061-0.001 0.092 0 2.471 1.33 4.695 3.363 5.908-0.175-0.017-0.349-0.043-0.523-0.076-0.179-0.034-0.363 0.029-0.483 0.165s-0.161 0.326-0.105 0.5c0.753 2.349 2.69 4.078 5.032 4.604-1.943 1.217-4.164 1.854-6.496 1.854-0.487 0-0.976-0.029-1.455-0.085-0.238-0.028-0.465 0.112-0.546 0.338s0.005 0.479 0.207 0.609c2.996 1.921 6.46 2.936 10.018 2.936 6.994 0 11.369-3.298 13.808-6.065 3.041-3.45 4.785-8.016 4.785-12.528 0-0.188-0.003-0.379-0.009-0.569 1.2-0.904 2.233-1.998 3.073-3.255 0.128-0.191 0.114-0.443-0.034-0.619s-0.394-0.233-0.604-0.14z"></path>
</symbol>
</defs>
</svg>
